<svg width="768" height="768" viewBox="0 0 768 768" fill="none" xmlns="http://www.w3.org/2000/svg">
<path d="M768 384C768 596.077 596.077 768 384 768C171.923 768 -3.05176e-05 596.077 -3.05176e-05 384C-3.05176e-05 171.923 171.923 0 384 0C596.077 0 768 171.923 768 384Z" fill="#FF9900"/>
<path d="M52.2241 452.608L122.368 331.115H262.656L332.8 452.608L262.656 574.101H122.368L52.2241 452.608Z" fill="white"/>
<path d="M218.875 472.469L232.656 399.625H253.68L230.969 502H209.734L193.07 433.516L176.406 502H155.172L132.461 399.625H153.484L167.336 472.328L184.211 399.625H202.07L218.875 472.469Z" fill="black"/>
<path d="M271.073 312.32L341.217 190.827H481.505L551.649 312.32L481.505 433.813H341.217L271.073 312.32Z" fill="white"/>
<path d="M379.203 319.938L368.234 331.75V361H347.141V258.625H368.234V305.031L377.516 292.305L403.602 258.625H429.547L393.195 304.117L430.602 361H405.5L379.203 319.938ZM448.602 281.055H454.367C459.945 281.055 462.734 278.992 462.734 274.867C462.734 273.227 462.055 271.914 460.695 270.93C459.383 269.945 457.578 269.453 455.281 269.453C453.312 269.453 451.625 269.828 450.219 270.578C448.859 271.281 448.18 272.312 448.18 273.672H433.766C433.766 268.891 435.734 265.07 439.672 262.211C443.656 259.305 448.719 257.852 454.859 257.852C461.656 257.852 467.047 259.258 471.031 262.07C475.062 264.836 477.078 268.727 477.078 273.742C477.078 279.32 473.914 283.281 467.586 285.625C474.617 287.547 478.133 291.859 478.133 298.562C478.133 303.484 475.977 307.445 471.664 310.445C467.398 313.398 461.797 314.875 454.859 314.875C448.203 314.875 442.859 313.328 438.828 310.234C434.797 307.094 432.781 302.852 432.781 297.508H447.266C447.266 299.102 448.062 300.484 449.656 301.656C451.25 302.781 453.266 303.344 455.703 303.344C458.516 303.344 460.531 302.734 461.75 301.516C463.016 300.25 463.648 298.797 463.648 297.156C463.648 292.844 460.789 290.664 455.07 290.617H448.602V281.055Z" fill="black"/>
<path d="M406.179 511.836C406.179 518.554 404.992 524.445 402.617 529.508C400.242 534.57 396.836 538.476 392.398 541.226C387.992 543.976 382.929 545.351 377.211 545.351C371.554 545.351 366.507 543.992 362.07 541.273C357.632 538.554 354.195 534.679 351.757 529.648C349.32 524.586 348.086 518.773 348.054 512.211V508.836C348.054 502.117 349.257 496.211 351.664 491.117C354.101 485.992 357.523 482.07 361.929 479.351C366.367 476.601 371.429 475.226 377.117 475.226C382.804 475.226 387.851 476.601 392.257 479.351C396.695 482.07 400.117 485.992 402.523 491.117C404.961 496.211 406.179 502.101 406.179 508.789V511.836ZM391.929 508.742C391.929 501.586 390.648 496.148 388.086 492.429C385.523 488.711 381.867 486.851 377.117 486.851C372.398 486.851 368.757 488.695 366.195 492.383C363.632 496.039 362.336 501.414 362.304 508.508V511.836C362.304 518.804 363.586 524.211 366.148 528.054C368.711 531.898 372.398 533.82 377.211 533.82C381.929 533.82 385.554 531.976 388.086 528.289C390.617 524.57 391.898 519.164 391.929 512.07V508.742ZM468.054 476.164V521.117C468.054 528.586 465.711 534.492 461.023 538.836C456.367 543.179 449.992 545.351 441.898 545.351C433.929 545.351 427.601 543.242 422.914 539.023C418.226 534.804 415.836 529.008 415.742 521.633V476.164H429.804V521.211C429.804 525.679 430.867 528.945 432.992 531.008C435.148 533.039 438.117 534.054 441.898 534.054C449.804 534.054 453.82 529.898 453.945 521.586V476.164H468.054ZM530.961 487.554H510.054V544.414H495.992V487.554H475.367V476.164H530.961V487.554ZM553.086 533.117H582.945V544.414H539.023V476.164H553.086V533.117ZM632.117 514.836H605.117V533.117H636.804V544.414H591.054V476.164H636.711V487.554H605.117V503.82H632.117V514.836ZM697.367 487.554H676.461V544.414H662.398V487.554H641.773V476.164H697.367V487.554Z" fill="black"/>
</svg>
